<?xml version="1.0" encoding="UTF-8"?>
<svg version="1.1" xmlns="http://www.w3.org/2000/svg" width="164" height="172">
<path d="M0 0 C54.12 0 108.24 0 164 0 C164 56.76 164 113.52 164 172 C109.88 172 55.76 172 0 172 C0 115.24 0 58.48 0 0 Z " fill="#24C59F" transform="translate(0,0)"/>
<path d="M0 0 C54.12 0 108.24 0 164 0 C164 56.76 164 113.52 164 172 C109.88 172 55.76 172 0 172 C0 115.24 0 58.48 0 0 Z M13 14 C13 14.66 13 15.32 13 16 C12.4225 16.226875 11.845 16.45375 11.25 16.6875 C4.90433382 20.3891386 2.90494725 27.28538644 1 34 C0.49788035 37.62288811 0.460551 41.16708772 0.49829102 44.82055664 C0.49288803 45.83997849 0.48748505 46.85940033 0.48191833 47.90971375 C0.46952041 51.24349976 0.48586172 54.57640701 0.50390625 57.91015625 C0.50375107 60.24702499 0.50225889 62.58389399 0.49949646 64.92076111 C0.4981165 69.80349187 0.51060425 74.68592746 0.53344727 79.56860352 C0.56184598 85.80807624 0.55908463 92.04705961 0.54635715 98.28656864 C0.53938268 103.10717403 0.54720926 107.9276675 0.55961418 112.74825859 C0.56411035 115.04821785 0.56448163 117.3481892 0.56054878 119.64814949 C0.55761881 122.8686271 0.57422865 126.08844406 0.59594727 129.30883789 C0.59144562 130.24678192 0.58694397 131.18472595 0.58230591 132.15109253 C0.69550521 142.31998058 3.36479173 151.18153788 10 159 C17.88778209 166.4795118 26.08465706 168.45472807 36.66357422 168.38818359 C38.22131058 168.39606903 38.22131058 168.39606903 39.81051636 168.40411377 C43.2253955 168.41726005 46.63980404 168.40859315 50.0546875 168.3984375 C52.4406849 168.40046008 54.82668171 168.40337305 57.212677 168.40713501 C62.20743713 168.41155137 67.202036 168.40515044 72.19677734 168.39111328 C78.58092562 168.37404065 84.96469495 168.38385511 91.34882927 168.40183067 C96.27494123 168.41270285 101.20096428 168.40920607 106.12707901 168.4014473 C108.48007376 168.39945382 110.83307672 168.40187442 113.18606186 168.40888596 C116.48346896 168.4165548 119.78027412 168.40481907 123.07763672 168.38818359 C124.03899536 168.39425629 125.000354 168.40032898 125.99084473 168.40658569 C135.90178312 168.31454483 144.81236531 166.15678648 152 159 C154.24343435 156.12840403 156.19405213 153.16328449 158 150 C158.36351562 149.37351563 158.72703125 148.74703125 159.1015625 148.1015625 C161.5708885 142.3254869 161.15962723 135.91080373 161.17700195 129.74707031 C161.18685875 128.21903275 161.18685875 128.21903275 161.19691467 126.66012573 C161.21657454 123.29945798 161.22829327 119.93883474 161.23828125 116.578125 C161.24235678 115.42665733 161.2464323 114.27518967 161.25063133 113.08882904 C161.27145972 106.99541912 161.28577608 100.90203152 161.29516602 94.80859375 C161.30623071 88.52973339 161.3406411 82.25122736 161.38033772 75.97249222 C161.40653145 71.1304663 161.41486027 66.28852455 161.41844749 61.44643402 C161.42330532 59.13249058 161.43489622 56.81855069 161.45348549 54.50467682 C161.47793763 51.25967071 161.4769006 48.01557861 161.4699707 44.77050781 C161.48278076 43.82470856 161.49559082 42.8789093 161.50878906 41.90444946 C161.43129298 31.89379916 157.82832438 23.33594561 151 16 C143.40781331 9.14023602 135.2607534 7.54938948 125.33642578 7.61181641 C123.77868942 7.60393097 123.77868942 7.60393097 122.18948364 7.59588623 C118.7746045 7.58273995 115.36019596 7.59140685 111.9453125 7.6015625 C109.5593151 7.59953992 107.17331829 7.59662695 104.787323 7.59286499 C99.79256287 7.58844863 94.797964 7.59484956 89.80322266 7.60888672 C83.41907438 7.62595935 77.03530505 7.61614489 70.65117073 7.59816933 C65.72505877 7.58729715 60.79903572 7.59079393 55.87292099 7.5985527 C53.51992624 7.60054618 51.16692328 7.59812558 48.81393814 7.59111404 C45.51653104 7.5834452 42.21972588 7.59518093 38.92236328 7.61181641 C37.96100464 7.60574371 36.999646 7.59967102 36.00915527 7.59341431 C27.98775245 7.66790744 19.53762036 8.98782439 13 14 Z " fill="#FAFDFD" transform="translate(0,0)"/>
<path d="M0 0 C1 1 1 1 1.11352539 3.50024414 C1.10828857 4.58426514 1.10305176 5.66828613 1.09765625 6.78515625 C1.09443359 7.95498047 1.09121094 9.12480469 1.08789062 10.33007812 C1.07532227 12.17762695 1.07532227 12.17762695 1.0625 14.0625 C1.05798828 15.29806641 1.05347656 16.53363281 1.04882812 17.80664062 C1.03699608 20.87114117 1.02051173 23.93554721 1 27 C1.74161377 26.98952637 2.48322754 26.97905273 3.24731445 26.96826172 C6.60234193 26.92672804 9.95731533 26.90068211 13.3125 26.875 C14.47974609 26.85824219 15.64699219 26.84148437 16.84960938 26.82421875 C17.96787109 26.81777344 19.08613281 26.81132813 20.23828125 26.8046875 C21.26993408 26.79421387 22.30158691 26.78374023 23.36450195 26.77294922 C26 27 26 27 29 29 C29.55859375 31.1484375 29.55859375 31.1484375 29 34 C27.26973458 36.75379175 25.18331569 39.16552003 23.0625 41.625 C22.17377197 42.68569702 22.17377197 42.68569702 21.26708984 43.76782227 C20.07324518 45.19212326 18.87472489 46.61251921 17.67138672 48.02880859 C15.45742933 50.63989418 13.28953001 53.28529425 11.125 55.9375 C10.41730469 56.80117187 9.70960937 57.66484375 8.98046875 58.5546875 C7.1049822 60.87037701 5.26325518 63.20748096 3.4375 65.5625 C2.880625 66.27535156 2.32375 66.98820312 1.75 67.72265625 C0.47677959 69.379548 -0.76982051 71.05699964 -2 72.74609375 C-2.680625 73.65488281 -3.36125 74.56367187 -4.0625 75.5 C-4.97708984 76.75296875 -4.97708984 76.75296875 -5.91015625 78.03125 C-8.59674164 80.56216408 -10.33698935 80.96108355 -14 81 C-15.66552734 79.86206055 -15.66552734 79.86206055 -17 78 C-17.34057617 75.36450195 -17.34057617 75.36450195 -17.29296875 72.23828125 C-17.28330078 71.12001953 -17.27363281 70.00175781 -17.26367188 68.84960938 C-17.23853516 67.68236328 -17.21339844 66.51511719 -17.1875 65.3125 C-17.17396484 64.13365234 -17.16042969 62.95480469 -17.14648438 61.74023438 C-17.11109326 58.82636589 -17.06171809 55.91341055 -17 53 C-17.70608398 53.01571045 -18.41216797 53.0314209 -19.13964844 53.04760742 C-22.34301729 53.11002097 -25.54625812 53.14901111 -28.75 53.1875 C-29.86117187 53.21263672 -30.97234375 53.23777344 -32.1171875 53.26367188 C-33.18710937 53.27333984 -34.25703125 53.28300781 -35.359375 53.29296875 C-36.34389648 53.3086792 -37.32841797 53.32438965 -38.34277344 53.34057617 C-41.39282409 52.94965182 -42.74113723 52.03157056 -45 50 C-44.125 44.25 -44.125 44.25 -43 42 C-42.34 42 -41.68 42 -41 42 C-40.77441406 41.46375 -40.54882812 40.9275 -40.31640625 40.375 C-38.57866456 37.23984586 -36.28755206 34.68193729 -33.9375 32 C-29.25067665 26.58268188 -24.94432192 20.99269593 -20.77734375 15.16796875 C-20.19082031 14.45253906 -19.60429688 13.73710938 -19 13 C-18.34 13 -17.68 13 -17 13 C-16.7421875 12.43667969 -16.484375 11.87335937 -16.21875 11.29296875 C-14.86284204 8.7419496 -13.27646056 6.58953101 -11.5 4.3125 C-10.8915625 3.52488281 -10.283125 2.73726562 -9.65625 1.92578125 C-6.54796566 -1.68833238 -4.43527034 -0.94367454 0 0 Z " fill="#F3FCFB" transform="translate(89,48)"/>
<path d="M0 0 C1 1 1 1 1.11352539 3.68383789 C1.10828857 4.85164795 1.10305176 6.01945801 1.09765625 7.22265625 C1.09443359 8.48271484 1.09121094 9.74277344 1.08789062 11.04101562 C1.07953403 12.38151109 1.07106907 13.72200588 1.0625 15.0625 C1.0574866 16.40689942 1.05292342 17.7513006 1.04882812 19.09570312 C1.03699488 22.39717941 1.02050971 25.69856803 1 29 C1.66 29 2.32 29 3 29 C2.67 30.65 2.34 32.3 2 34 C5.63 34.33 9.26 34.66 13 35 C13 35.66 13 36.32 13 37 C9.89601022 37.08710289 6.79233452 37.14042309 3.6875 37.1875 C2.80642578 37.21263672 1.92535156 37.23777344 1.01757812 37.26367188 C-0.25375977 37.27817383 -0.25375977 37.27817383 -1.55078125 37.29296875 C-2.33106689 37.3086792 -3.11135254 37.32438965 -3.9152832 37.34057617 C-6.56479718 36.90773017 -7.41515643 36.13781079 -9 34 C-9.51171875 30.64453125 -9.51171875 30.64453125 -9.6875 26.8125 C-9.75324219 25.54019531 -9.81898437 24.26789063 -9.88671875 22.95703125 C-9.94279297 21.49330078 -9.94279297 21.49330078 -10 20 C-21.12044484 31.55936336 -21.12044484 31.55936336 -29 45 C-28.505 44.835 -28.01 44.67 -27.5 44.5 C-23.86639077 43.77327815 -20.71394234 43.76039082 -17 44 C-16.34 44.99 -15.68 45.98 -15 47 C-15.5 48.9375 -15.5 48.9375 -17 51 C-19.82501424 51.65192636 -22.12531669 51.90131684 -25 52 C-26.69769531 52.05994141 -26.69769531 52.05994141 -28.4296875 52.12109375 C-34.45034223 52.22928733 -39.32005063 52.1839319 -45 50 C-44.125 44.25 -44.125 44.25 -43 42 C-42.34 42 -41.68 42 -41 42 C-40.77441406 41.46375 -40.54882812 40.9275 -40.31640625 40.375 C-38.57866456 37.23984586 -36.28755206 34.68193729 -33.9375 32 C-29.25067665 26.58268188 -24.94432192 20.99269593 -20.77734375 15.16796875 C-20.19082031 14.45253906 -19.60429688 13.73710938 -19 13 C-18.34 13 -17.68 13 -17 13 C-16.7421875 12.43667969 -16.484375 11.87335937 -16.21875 11.29296875 C-14.86284204 8.7419496 -13.27646056 6.58953101 -11.5 4.3125 C-10.8915625 3.52488281 -10.283125 2.73726562 -9.65625 1.92578125 C-6.54796566 -1.68833238 -4.43527034 -0.94367454 0 0 Z " fill="#F3FCFC" transform="translate(89,48)"/>
<path d="M0 0 C0.33 0 0.66 0 1 0 C1.04898438 1.05960937 1.09796875 2.11921875 1.1484375 3.2109375 C1.22346709 4.59898497 1.29901485 5.98700451 1.375 7.375 C1.4059375 8.07367188 1.436875 8.77234375 1.46875 9.4921875 C1.59499498 13.70185827 1.59499498 13.70185827 4 17 C6.03060659 17.36894582 6.03060659 17.36894582 8.3515625 17.4140625 C9.20234375 17.45273438 10.053125 17.49140625 10.9296875 17.53125 C11.81914063 17.5621875 12.70859375 17.593125 13.625 17.625 C14.5221875 17.66367188 15.419375 17.70234375 16.34375 17.7421875 C18.5622927 17.83659357 20.78082403 17.92216748 23 18 C16.82039426 26.41345884 10.48456347 34.69959099 3 42 C2.93941406 40.85660156 2.87882812 39.71320313 2.81640625 38.53515625 C2.73201572 37.04425695 2.64736698 35.55337225 2.5625 34.0625 C2.52318359 33.30775391 2.48386719 32.55300781 2.44335938 31.77539062 C2.55961976 28.08055813 2.55961976 28.08055813 1 25 C-0.48638992 24.84344973 -1.97949127 24.74933057 -3.47265625 24.68359375 C-4.37177734 24.64169922 -5.27089844 24.59980469 -6.19726562 24.55664062 C-7.14279297 24.51732422 -8.08832031 24.47800781 -9.0625 24.4375 C-10.4865918 24.37272461 -10.4865918 24.37272461 -11.93945312 24.30664062 C-14.29281353 24.20020724 -16.64628354 24.09818992 -19 24 C-16.5357143 19.49777561 -13.42690828 15.83567132 -10.0625 12 C-9.01095263 10.79233332 -7.96015675 9.58401184 -6.91015625 8.375 C-6.41273926 7.80394531 -5.91532227 7.23289062 -5.40283203 6.64453125 C-4.12616948 5.1479077 -2.90167207 3.60717942 -1.68359375 2.0625 C-1.12800781 1.381875 -0.57242188 0.70125 0 0 Z " fill="#33C29F" transform="translate(79,67)"/>
<path d="M0 0 C1.36906746 -0.00639748 1.36906746 -0.00639748 2.76579285 -0.01292419 C3.75455414 -0.01247101 4.74331543 -0.01201782 5.76203918 -0.0115509 C6.81294235 -0.01490952 7.86384552 -0.01826813 8.94659424 -0.02172852 C12.41609379 -0.03121891 15.88554504 -0.0331803 19.35505676 -0.03425598 C21.76450623 -0.03746854 24.17395549 -0.04083261 26.58340454 -0.04434204 C31.62960767 -0.05032756 36.67579369 -0.0521824 41.72200012 -0.05158997 C48.20222229 -0.05148807 54.68233556 -0.06517139 61.16253185 -0.08236217 C66.13548288 -0.0934513 71.10840727 -0.09551017 76.0813694 -0.09498024 C78.47168162 -0.09616383 80.86199445 -0.10060666 83.25229454 -0.10831261 C86.58504896 -0.11805555 89.91756255 -0.1152577 93.25032043 -0.10920715 C94.24515442 -0.11482666 95.2399884 -0.12044617 96.26496887 -0.12623596 C97.62134712 -0.11994423 97.62134712 -0.11994423 99.00512695 -0.11352539 C99.79321841 -0.11407016 100.58130987 -0.11461493 101.39328289 -0.1151762 C103.31208801 0.13371277 103.31208801 0.13371277 105.31208801 2.13371277 C104.48189699 2.1295647 104.48189699 2.1295647 103.63493443 2.12533283 C90.13762017 2.05893875 76.64033473 2.00955891 63.14289188 1.97827625 C56.61548834 1.96263819 50.08820289 1.94143354 43.56086731 1.90739441 C37.25850708 1.87473516 30.95626028 1.85684577 24.65382195 1.84908104 C22.25253451 1.84354936 19.8512531 1.83274737 17.45001411 1.8165226 C14.07976621 1.79466152 10.7099836 1.79174953 7.3396759 1.7931366 C6.35280289 1.78235077 5.36592987 1.77156494 4.34915161 1.76045227 C-3.231097 1.79408368 -9.68133031 2.84871069 -15.81291199 7.50871277 C-17.99673581 9.9795425 -17.99673581 9.9795425 -17.50041199 12.94621277 C-17.23228699 13.66808777 -16.96416199 14.38996277 -16.68791199 15.13371277 C-18.68791199 16.13371277 -20.68791199 17.13371277 -22.68791199 18.13371277 C-22.68791199 17.14371277 -22.68791199 16.15371277 -22.68791199 15.13371277 C-24.00791199 15.46371277 -25.32791199 15.79371277 -26.68791199 16.13371277 C-28.23016092 24.08936437 -28.97294117 31.68075376 -28.91496277 39.77726746 C-28.91525482 40.87141968 -28.91554688 41.9655719 -28.91584778 43.09288025 C-28.91446853 46.66386705 -28.89897418 50.234638 -28.88322449 53.80558777 C-28.87948935 56.29950344 -28.87664475 58.79342059 -28.87464905 61.28733826 C-28.86705201 67.81714506 -28.84743759 74.34686137 -28.82524109 80.87663269 C-28.8035998 87.553454 -28.79562922 94.23030365 -28.78556824 100.90715027 C-28.76418773 113.98270947 -28.73049 127.05820628 -28.68791199 140.13371277 C-32.42571442 134.52700912 -31.84655222 128.53787135 -31.86491394 122.01017761 C-31.87148514 120.99323822 -31.87805634 119.97629883 -31.88482666 118.92854309 C-31.90451596 115.56724467 -31.91621342 112.20599087 -31.92619324 108.84465027 C-31.93026876 107.69351368 -31.93434429 106.54237709 -31.93854332 105.35635757 C-31.95938678 99.26179943 -31.97369523 93.16726367 -31.983078 87.07267761 C-31.9941306 80.79500756 -32.02852267 74.5176931 -32.0682497 68.24014854 C-32.0944633 63.39808009 -32.10277414 58.55609572 -32.10635948 53.71396255 C-32.11121418 51.40084561 -32.12279607 49.08773215 -32.14139748 46.77468491 C-32.16588625 43.52737945 -32.16480567 40.28098567 -32.15788269 37.03361511 C-32.17069275 36.08984009 -32.18350281 35.14606506 -32.19670105 34.1736908 C-32.12332458 24.66539807 -29.48112962 16.38683176 -23.05509949 9.27824402 C-21.68791199 8.13371277 -21.68791199 8.13371277 -19.68791199 8.13371277 C-19.68791199 7.47371277 -19.68791199 6.81371277 -19.68791199 6.13371277 C-18.12939443 5.31359965 -16.56589482 4.50295064 -15.00041199 3.69621277 C-14.1302948 3.24375183 -13.26017761 2.79129089 -12.36369324 2.32511902 C-8.28206222 0.50775046 -4.44077305 0.00942959 0 0 Z " fill="#49BF9C" transform="translate(32.68791198730469,7.8662872314453125)"/>
<path d="M0 0 C0.30212847 3.32341318 -0.00252145 5.00517232 -1.4876709 8.05169678 C-3.53156219 12.68554089 -3.418022 17.11290646 -3.38476562 22.11035156 C-3.3901384 23.10141907 -3.39551117 24.09248657 -3.40104675 25.11358643 C-3.41079611 27.25517075 -3.41377754 29.39679445 -3.41069031 31.53839874 C-3.40620358 34.92567265 -3.42023491 38.31242662 -3.43908691 41.699646 C-3.48205781 50.10597155 -3.49314266 58.51228499 -3.50531006 66.91870117 C-3.5168191 74.03437129 -3.54031146 81.1498028 -3.58000183 88.26537323 C-3.59361059 91.60639845 -3.58939544 94.94710474 -3.58459473 98.28814697 C-3.59393048 100.32784437 -3.60409806 102.3675382 -3.61523438 104.40722656 C-3.60908615 105.33921875 -3.60293793 106.27121094 -3.59660339 107.23144531 C-3.60480606 108.0836969 -3.61300873 108.93594849 -3.62145996 109.81402588 C-3.62252872 110.92451483 -3.62252872 110.92451483 -3.62361908 112.0574379 C-4.09976691 114.51491296 -5.11396271 115.41796436 -7 117 C-7.04640317 103.59553529 -7.08190979 90.19108978 -7.10362434 76.78656101 C-7.11404783 70.56186136 -7.12818092 64.33721679 -7.15087891 58.11254883 C-7.17265831 52.10196836 -7.18457942 46.09144079 -7.18975449 40.0808239 C-7.19344108 37.79118963 -7.20064004 35.50155816 -7.21146011 33.21194649 C-7.22604264 29.9974359 -7.2279751 26.78314202 -7.22705078 23.56860352 C-7.23424133 22.62848419 -7.24143188 21.68836487 -7.24884033 20.71975708 C-7.22738212 13.79335307 -6.1894916 7.56847481 -4 1 C-2 0 -2 0 0 0 Z " fill="#27CF9B" transform="translate(10,23)"/>
<path d="M0 0 C0.66 0.33 1.32 0.66 2 1 C4.204364 1.22950319 6.41392173 1.41075933 8.625 1.5625 C9.81351563 1.64628906 11.00203125 1.73007813 12.2265625 1.81640625 C13.59941406 1.90728516 13.59941406 1.90728516 15 2 C15.82421875 4.08984375 15.82421875 4.08984375 16 7 C14.34726574 9.43294394 12.78219405 11.42024201 10.8125 13.5625 C10.31685547 14.12646484 9.82121094 14.69042969 9.31054688 15.27148438 C6.63295031 18.29571827 3.86170471 21.13829529 1 24 C1 17.4 1 10.8 1 4 C-0.98 4 -2.96 4 -5 4 C-3.35 2.68 -1.7 1.36 0 0 Z " fill="#20C59C" transform="translate(81,85)"/>
<path d="M0 0 C0.99 0.495 0.99 0.495 2 1 C-0.05233685 3.2477975 -1.00667261 4.0022242 -4 5 C-3.505 6.485 -3.505 6.485 -3 8 C-18.59437075 7.93950637 -34.18855836 7.86203572 -49.78273487 7.76428509 C-57.02319192 7.71929595 -64.26359944 7.67988861 -71.50415039 7.65356445 C-77.81412031 7.63060947 -84.1239339 7.59723977 -90.4337799 7.55129844 C-93.77564334 7.52733213 -97.11735163 7.50862585 -100.45929909 7.50238609 C-104.18770201 7.49280876 -107.91553488 7.46482522 -111.64379883 7.43237305 C-112.75510162 7.43380814 -113.86640442 7.43524323 -115.01138306 7.4367218 C-116.02520554 7.42418365 -117.03902802 7.41164551 -118.08357239 7.39872742 C-118.96572827 7.39411845 -119.84788416 7.38950949 -120.75677204 7.38476086 C-123.43293447 6.92574262 -124.31947408 6.07836088 -126 4 C-125.2252533 4.16167664 -124.45050659 4.32335327 -123.65228271 4.4899292 C-118.93683539 5.14847953 -114.31897587 5.15566706 -109.56347656 5.16113281 C-108.52527771 5.16609772 -107.48707886 5.17106262 -106.41741943 5.17617798 C-102.99181448 5.19075112 -99.56625583 5.19759354 -96.140625 5.203125 C-93.75177001 5.20888044 -91.36291503 5.21463812 -88.97406006 5.22039795 C-83.96740505 5.23089415 -78.96076602 5.23674586 -73.95410156 5.24023438 C-67.55423946 5.24571614 -61.15459042 5.2697435 -54.75479507 5.29820633 C-49.8201232 5.316875 -44.88550223 5.32204057 -39.95079803 5.32357025 C-37.59220973 5.32658774 -35.23362213 5.33458556 -32.87506866 5.34775543 C-29.56791693 5.36490412 -26.26128032 5.36291398 -22.95410156 5.35644531 C-21.98960083 5.3656601 -21.0251001 5.37487488 -20.03137207 5.3843689 C-13.27826274 5.34321228 -5.01614581 5.01614581 0 0 Z " fill="#E0FEFE" transform="translate(146,162)"/>
<path d="M0 0 C0.99 0.33 1.98 0.66 3 1 C5.63432729 7.12699976 5.25738666 14.30955022 5.16699219 20.84057617 C5.16074326 21.88563828 5.15449432 22.93070038 5.14805603 24.00743103 C5.12471912 27.43611607 5.08630117 30.86443383 5.046875 34.29296875 C5.02575849 36.68711306 5.00528084 39.08126309 4.9854126 41.47541809 C4.94150352 46.48101825 4.89016504 51.48647185 4.83349609 56.49194336 C4.76145654 62.90427878 4.707509 69.3166152 4.65903854 75.72916698 C4.61979622 80.66803304 4.57122703 85.60677348 4.51981354 90.5455265 C4.49627393 92.91017334 4.47557722 95.27485027 4.45778656 97.63954735 C4.43149212 100.94241554 4.39269756 104.24490806 4.35058594 107.54760742 C4.34528366 108.52177612 4.33998138 109.49594482 4.33451843 110.49963379 C4.25849626 115.38953997 3.91199205 119.41256136 2 124 C1.34 124 0.68 124 0 124 C0.14137264 123.40271151 0.28274529 122.80542301 0.42840195 122.19003487 C1.83698783 115.80205951 2.28682443 109.78907837 2.25878906 103.26123047 C2.2622937 102.23874207 2.26579834 101.21625366 2.26940918 100.16278076 C2.27814529 96.81417872 2.27240702 93.46579134 2.265625 90.1171875 C2.26697377 87.77409831 2.26891608 85.43100938 2.27142334 83.08792114 C2.27436343 78.19091106 2.27011209 73.2939742 2.26074219 68.39697266 C2.24933576 62.13158289 2.25592185 55.86636428 2.26788712 49.60098076 C2.27512505 44.76761594 2.2728091 39.9342915 2.26763153 35.10092545 C2.26630104 32.79093531 2.26792162 30.48094146 2.27259064 28.17095566 C2.27768903 24.94053219 2.26989954 21.71038355 2.25878906 18.47998047 C2.26283752 17.53327484 2.26688599 16.58656921 2.27105713 15.61117554 C2.2358944 10.07178954 1.56458734 5.31958726 0 0 Z " fill="#D1FDFD" transform="translate(158,26)"/>
<path d="M0 0 C0.66 0 1.32 0 2 0 C1.75748505 1.16878189 1.75748505 1.16878189 1.5100708 2.36117554 C0.85950523 7.00228398 0.84437057 11.5404903 0.83886719 16.22119141 C0.83390228 17.23667053 0.82893738 18.25214966 0.82382202 19.29840088 C0.80924848 22.64946173 0.80240564 26.0004752 0.796875 29.3515625 C0.79111866 31.69078573 0.78536099 34.03000896 0.77960205 36.36923218 C0.76910508 41.273338 0.76325419 46.1774275 0.75976562 51.08154297 C0.75429018 57.34220593 0.73027671 63.60265041 0.70179367 69.86324501 C0.6830975 74.69677342 0.67795793 79.53024999 0.67642975 84.36381149 C0.67341737 86.67050747 0.6654371 88.97720285 0.65224457 91.28386307 C0.3607831 107.90296305 0.3607831 107.90296305 4 124 C3.34 124 2.68 124 2 124 C1.67 123.01 1.34 122.02 1 121 C0.34 120.67 -0.32 120.34 -1 120 C-1.02334822 104.79691083 -1.04098865 89.59382248 -1.05181217 74.39071941 C-1.05697103 67.33184396 -1.06400595 60.27297964 -1.07543945 53.21411133 C-1.08646147 46.40604865 -1.09227914 39.59799756 -1.09487724 32.78992653 C-1.09672954 30.18832021 -1.10034642 27.58671455 -1.10573006 24.98511314 C-1.11295475 21.35033151 -1.11399033 17.71559817 -1.11352539 14.08081055 C-1.11712067 12.99755997 -1.12071594 11.91430939 -1.12442017 10.79823303 C-1.1230455 9.80965302 -1.12167084 8.821073 -1.12025452 7.80253601 C-1.12117631 6.94250316 -1.1220981 6.0824703 -1.12304783 5.19637585 C-1 3 -1 3 0 0 Z " fill="#CDFDFB" transform="translate(1,28)"/>
<path d="M0 0 C0.66 0.33 1.32 0.66 2 1 C0.9171875 1.5878125 0.9171875 1.5878125 -0.1875 2.1875 C-3.31456222 4.20271787 -5.65505612 6.10330462 -8 9 C-7.95020416 11.760165 -7.95020416 11.760165 -7 14 C-9 15 -11 16 -13 17 C-13 16.01 -13 15.02 -13 14 C-14.32 14.33 -15.64 14.66 -17 15 C-17.66 18.96 -18.32 22.92 -19 27 C-19.66 26.34 -20.32 25.68 -21 25 C-20.49582848 17.60548433 -16.89580436 12.27240469 -12 7 C-11.34 7 -10.68 7 -10 7 C-10 6.34 -10 5.68 -10 5 C-8.38007835 4.13624104 -6.75388139 3.28424146 -5.125 2.4375 C-4.22007813 1.96183594 -3.31515625 1.48617188 -2.3828125 0.99609375 C-1.59648437 0.66738281 -0.81015625 0.33867187 0 0 Z " fill="#4ACBA0" transform="translate(23,9)"/>
<path d="M0 0 C0.66 0 1.32 0 2 0 C2.33 0.66 2.66 1.32 3 2 C3.556875 1.649375 4.11375 1.29875 4.6875 0.9375 C7.53886783 -0.21845993 9.08517222 0.19032562 12 1 C10.37228982 4.73572828 8.01966695 7.61658392 5.4375 10.75 C4.63183594 11.73484375 3.82617188 12.7196875 2.99609375 13.734375 C2.33738281 14.48203125 1.67867188 15.2296875 1 16 C0.67 16 0.34 16 0 16 C0 10.72 0 5.44 0 0 Z " fill="#2CC19D" transform="translate(82,93)"/>
<path d="M0 0 C0.66 0 1.32 0 2 0 C2 7.59 2 15.18 2 23 C6.57721148 24.52573716 11.34079538 24.35653493 16.1328125 24.51757812 C21.07183655 24.73499364 25.30123467 25.44840236 30 27 C30 30.3 30 33.6 30 37 C29.01 37 28.02 37 27 37 C27.66 34.36 28.32 31.72 29 29 C25.88856433 27.96285478 23.50531904 27.79968139 20.23828125 27.68359375 C18.72681519 27.62643188 18.72681519 27.62643188 17.18481445 27.56811523 C15.90695068 27.52501221 14.62908691 27.48190918 13.3125 27.4375 C9.249375 27.293125 5.18625 27.14875 1 27 C0.67 18.09 0.34 9.18 0 0 Z " fill="#3DB998" transform="translate(89,48)"/>
<path d="M0 0 C0.66 0 1.32 0 2 0 C2 1.98 2 3.96 2 6 C0.68 6 -0.64 6 -2 6 C-1.814375 6.94875 -1.62875 7.8975 -1.4375 8.875 C-1 12 -1 12 -2 14 C-2.66 14 -3.32 14 -4 14 C-4 14.66 -4 15.32 -4 16 C-4.66 16 -5.32 16 -6 16 C-6 15.34 -6 14.68 -6 14 C-6.66 14 -7.32 14 -8 14 C-8.33 14.99 -8.66 15.98 -9 17 C-10.32 16.67 -11.64 16.34 -13 16 C-11.84371094 14.64455078 -11.84371094 14.64455078 -10.6640625 13.26171875 C-9.65095837 12.07038333 -8.63794212 10.87897317 -7.625 9.6875 C-7.11710937 9.09259766 -6.60921875 8.49769531 -6.0859375 7.88476562 C-5.59609375 7.30791016 -5.10625 6.73105469 -4.6015625 6.13671875 C-4.15119629 5.60780029 -3.70083008 5.07888184 -3.23681641 4.53393555 C-2.07125727 3.08837533 -1.03003696 1.54505544 0 0 Z " fill="#33BFA2" transform="translate(113,87)"/>
<path d="M0 0 C9.74459895 0.29307065 15.55354056 0.94018921 22.875 7.625 C25 10 25 10 26 12 C24.35 12 22.7 12 21 12 C21 10.68 21 9.36 21 8 C19.35 8.33 17.7 8.66 16 9 C15.34 7.35 14.68 5.7 14 4 C13.24074219 3.96261719 12.48148438 3.92523438 11.69921875 3.88671875 C10.70535156 3.82097656 9.71148437 3.75523438 8.6875 3.6875 C7.70136719 3.62949219 6.71523437 3.57148438 5.69921875 3.51171875 C2.75615543 2.95377187 1.81817001 2.31459868 0 0 Z " fill="#36C19F" transform="translate(128,9)"/>
<path d="M0 0 C3.47013587 2.97440217 5.70452459 6.56069898 6.26156616 11.15936279 C6.3460949 13.70266881 6.337347 16.22911334 6.29296875 18.7734375 C6.28872391 19.6971817 6.28447906 20.6209259 6.28010559 21.57266235 C6.26338673 24.5070783 6.22574716 27.44079356 6.1875 30.375 C6.17244438 32.37108379 6.15875751 34.36717841 6.14648438 36.36328125 C6.11350545 41.24245522 6.06177014 46.12110903 6 51 C5.67 51 5.34 51 5 51 C4.67 37.8 4.34 24.6 4 11 C3.01 11 2.02 11 1 11 C0.4254048 7.26513121 0 3.78706732 0 0 Z " fill="#2DBC9D" transform="translate(154,21)"/>
<path d="M0 0 C0.66 0.33 1.32 0.66 2 1 C1.42089125 4.72643889 -0.12870948 6.540119 -2.6875 9.25 C-6.42479923 13.31052511 -9.77926614 17.52269195 -13 22 C-13.33 21.01 -13.66 20.02 -14 19 C-13.01 17.515 -13.01 17.515 -12 16 C-11.34 16 -10.68 16 -10 16 C-10.226875 15.401875 -10.45375 14.80375 -10.6875 14.1875 C-10.790625 13.465625 -10.89375 12.74375 -11 12 C-9.6875 10.5 -9.6875 10.5 -8 9 C-6.82425289 6.90010348 -6.82425289 6.90010348 -6 5 C-4.68 5.66 -3.36 6.32 -2 7 C-2 5.68 -2 4.36 -2 3 C-1.34 3 -0.68 3 0 3 C0 2.01 0 1.02 0 0 Z " fill="#3CC39D" transform="translate(73,53)"/>
<path d="M0 0 C12.87 0.495 12.87 0.495 26 1 C26.33 9.91 26.66 18.82 27 28 C27.66 28.33 28.32 28.66 29 29 C27.68 28.67 26.36 28.34 25 28 C25 20.08 25 12.16 25 4 C19.28905745 3.16850461 19.28905745 3.16850461 13.59765625 2.68359375 C12.85322266 2.64169922 12.10878906 2.59980469 11.34179688 2.55664062 C10.58962891 2.51732422 9.83746094 2.47800781 9.0625 2.4375 C8.28326172 2.39431641 7.50402344 2.35113281 6.70117188 2.30664062 C4.80092883 2.20171923 2.90048331 2.1004755 1 2 C0.67 1.34 0.34 0.68 0 0 Z " fill="#47B79C" transform="translate(46,100)"/>
<path d="M0 0 C4.10410755 -0.05796132 8.20811016 -0.09358313 12.3125 -0.125 C13.47974609 -0.14175781 14.64699219 -0.15851563 15.84960938 -0.17578125 C16.96787109 -0.18222656 18.08613281 -0.18867187 19.23828125 -0.1953125 C20.26993408 -0.20578613 21.30158691 -0.21625977 22.36450195 -0.22705078 C25 0 25 0 28 2 C28.5 4.3125 28.5 4.3125 28 7 C25.5 9.8125 25.5 9.8125 23 12 C23.33 8.37 23.66 4.74 24 1 C16.08 1.33 8.16 1.66 0 2 C0 1.34 0 0.68 0 0 Z " fill="#D2FCF9" transform="translate(90,75)"/>
<path d="M0 0 C1.11375 0.556875 1.11375 0.556875 2.25 1.125 C-1.83078632 6.1272542 -5.44280693 7.20434219 -11.75 8.125 C-5.95 -1.89318182 -5.95 -1.89318182 0 0 Z " fill="#2AB5A3" transform="translate(146.75,158.875)"/>
<path d="M0 0 C0.33 0.66 0.66 1.32 1 2 C0.67 2.99 0.34 3.98 0 5 C-0.66 5 -1.32 5 -2 5 C-2.0825 5.5775 -2.165 6.155 -2.25 6.75 C-3.21797787 9.6539336 -4.68694284 11.03740604 -7 13 C-7.66 13 -8.32 13 -9 13 C-9 14.98 -9 16.96 -9 19 C-9.66 18.67 -10.32 18.34 -11 18 C-10.125 12.25 -10.125 12.25 -9 10 C-8.34 10 -7.68 10 -7 10 C-6.773125 9.46375 -6.54625 8.9275 -6.3125 8.375 C-4.56617944 5.21499137 -2.3597151 2.7323017 0 0 Z " fill="#D2F9F3" transform="translate(55,80)"/>
<path d="M0 0 C6.6 0 13.2 0 20 0 C18.35 1.98 16.7 3.96 15 6 C14.67 5.01 14.34 4.02 14 3 C13.07316406 2.95101562 12.14632812 2.90203125 11.19140625 2.8515625 C9.99386719 2.77679688 8.79632813 2.70203125 7.5625 2.625 C6.36753906 2.55539063 5.17257813 2.48578125 3.94140625 2.4140625 C2.97074219 2.27742188 2.00007813 2.14078125 1 2 C0.67 1.34 0.34 0.68 0 0 Z " fill="#40B699" transform="translate(82,85)"/>
<path d="M0 0 C0 1.98 0 3.96 0 6 C-3 5 -3 5 -5 4 C-5 3.34 -5 2.68 -5 2 C-5.66 2.66 -6.32 3.32 -7 4 C-7.66 4.66 -8.32 5.32 -9 6 C-9.99 5.67 -10.98 5.34 -12 5 C-12 4.01 -12 3.02 -12 2 C-7.82262526 0.40861915 -4.46839215 -0.21278058 0 0 Z " fill="#2DD29A" transform="translate(32,10)"/>
<path d="M0 0 C3.3 0 6.6 0 10 0 C9.67 1.32 9.34 2.64 9 4 C6.04335481 5.4783226 3.25770263 5.06032783 0 5 C0 3.35 0 1.7 0 0 Z " fill="#0DC0A4" transform="translate(128,162)"/>
<path d="M0 0 C0.99 0.66 1.98 1.32 3 2 C3.47446226 5.60591321 2.83832664 7.89782379 1 11 C-0.32 11 -1.64 11 -3 11 C-2.11223998 7.30099992 -1.05418136 3.65449539 0 0 Z " fill="#12BDA0" transform="translate(153,144)"/>
<path d="M0 0 C0.66 0.33 1.32 0.66 2 1 C1.278125 1.391875 0.55625 1.78375 -0.1875 2.1875 C-3.13439885 3.92307807 -3.13439885 3.92307807 -5.5 6.6875 C-8 9 -8 9 -10.8125 9.3125 C-11.534375 9.209375 -12.25625 9.10625 -13 9 C-12.67 8.34 -12.34 7.68 -12 7 C-11.34 7 -10.68 7 -10 7 C-10 6.34 -10 5.68 -10 5 C-8.38007835 4.13624104 -6.75388139 3.28424146 -5.125 2.4375 C-4.22007813 1.96183594 -3.31515625 1.48617188 -2.3828125 0.99609375 C-1.20332031 0.50302734 -1.20332031 0.50302734 0 0 Z " fill="#56CFA6" transform="translate(23,9)"/>
<path d="M0 0 C2.97246802 2.54782974 4.41535288 5.45340883 6 9 C6 9.66 6 10.32 6 11 C4.35 11 2.7 11 1 11 C0.4254048 7.26513121 0 3.78706732 0 0 Z " fill="#39C0A1" transform="translate(154,21)"/>
<path d="M0 0 C0.33 0 0.66 0 1 0 C1 4.62 1 9.24 1 14 C0.67 14 0.34 14 0 14 C-0.0825 13.05125 -0.165 12.1025 -0.25 11.125 C-0.65074923 7.89538209 -0.65074923 7.89538209 -3.0625 6.625 C-3.701875 6.41875 -4.34125 6.2125 -5 6 C-3.35830472 3.97945196 -1.69088222 1.97956942 0 0 Z " fill="#40BF9B" transform="translate(79,67)"/>
<path d="M0 0 C0.99 0.33 1.98 0.66 3 1 C3 1.99 3 2.98 3 4 C4.32 4 5.64 4 7 4 C7.33 4.99 7.66 5.98 8 7 C6.35 7.33 4.7 7.66 3 8 C0 3.375 0 3.375 0 0 Z " fill="#1EBCA5" transform="translate(144,152)"/>
<path d="M0 0 C0.66 0.33 1.32 0.66 2 1 C1.01 2.485 1.01 2.485 0 4 C-0.66 4 -1.32 4 -2 4 C-2.185625 5.27875 -2.37125 6.5575 -2.5625 7.875 C-2.66691406 8.59429687 -2.77132812 9.31359375 -2.87890625 10.0546875 C-3.1684297 12.08140667 -3.1684297 12.08140667 -2 14 C-3.32 13.67 -4.64 13.34 -6 13 C-5.54177532 9.53058454 -5.10868317 6.32604951 -4 3 C-3.01 3 -2.02 3 -1 3 C-0.67 2.01 -0.34 1.02 0 0 Z " fill="#49BFA0" transform="translate(48,86)"/>
<path d="M0 0 C0.99 0.33 1.98 0.66 3 1 C-0.9176598 7.63921993 -0.9176598 7.63921993 -5.1875 9.0625 C-8 9 -8 9 -10 7 C-7.69 7 -5.38 7 -3 7 C-3 6.01 -3 5.02 -3 4 C-2.34 4 -1.68 4 -1 4 C-0.67 2.68 -0.34 1.36 0 0 Z " fill="#CEFAF6" transform="translate(83,120)"/>
<path d="M0 0 C0.928125 0.0825 1.85625 0.165 2.8125 0.25 C2.4825 1.24 2.1525 2.23 1.8125 3.25 C-0.1875 3.91666667 -2.1875 4.58333333 -4.1875 5.25 C-6.52281458 7.24935694 -6.52281458 7.24935694 -8.1875 9.25 C-8.1875 7.6 -8.1875 5.95 -8.1875 4.25 C-7.5275 4.25 -6.8675 4.25 -6.1875 4.25 C-5.775 3.59 -5.3625 2.93 -4.9375 2.25 C-3.1875 0.25 -3.1875 0.25 0 0 Z " fill="#40C3A2" transform="translate(85.1875,43.75)"/>
<path d="M0 0 C0.66 0.33 1.32 0.66 2 1 C-0.05233685 3.2477975 -1.00667261 4.0022242 -4 5 C-3.67 5.99 -3.34 6.98 -3 8 C-5.31 7.67 -7.62 7.34 -10 7 C-9.34 6.67 -8.68 6.34 -8 6 C-8 5.34 -8 4.68 -8 4 C-6.865625 3.525625 -5.73125 3.05125 -4.5625 2.5625 C-1.24259834 1.36377917 -1.24259834 1.36377917 0 0 Z " fill="#D7F8F5" transform="translate(146,162)"/>
<path d="M0 0 C0.99 0.33 1.98 0.66 3 1 C1.44499019 4.81684226 -1.03595495 7.19195732 -4 10 C-4 8.35 -4 6.7 -4 5 C-3.01 5 -2.02 5 -1 5 C-1.33 4.01 -1.66 3.02 -2 2 C-1.34 1.34 -0.68 0.68 0 0 Z " fill="#3EBFA3" transform="translate(91,93)"/>
<path d="M0 0 C2.475 0.495 2.475 0.495 5 1 C5 3.97 5 6.94 5 10 C4.34 9.67 3.68 9.34 3 9 C3.33 7.35 3.66 5.7 4 4 C2.68 3.67 1.36 3.34 0 3 C0 2.01 0 1.02 0 0 Z " fill="#20C99D" transform="translate(74,74)"/>
<path d="M0 0 C0.33 1.32 0.66 2.64 1 4 C0.01 4.33 -0.98 4.66 -2 5 C-1.67 5.99 -1.34 6.98 -1 8 C-2.875 9.0625 -2.875 9.0625 -5 10 C-5.66 9.67 -6.32 9.34 -7 9 C-4.69 6.03 -2.38 3.06 0 0 Z " fill="#D9FAF5" transform="translate(63,70)"/>
<path d="M0 0 C0.99 0.33 1.98 0.66 3 1 C5.36397437 6.66342523 5.19110435 12.98021304 5 19 C4.67 19 4.34 19 4 19 C3.87882813 18.29875 3.75765625 17.5975 3.6328125 16.875 C2.62695498 11.18029895 1.47688372 5.59105981 0 0 Z " fill="#DFFDFB" transform="translate(158,26)"/>
<path d="M0 0 C1 2 1 2 0.4375 4.3125 C-1.47539467 7.88878134 -3.78248866 9.55189355 -7 12 C-7.66 11.67 -8.32 11.34 -9 11 C-6.03 7.37 -3.06 3.74 0 0 Z " fill="#4FBEA2" transform="translate(73,74)"/>
<path d="M0 0 C2.42857143 6.28571429 2.42857143 6.28571429 1 10 C-2.875 4.375 -2.875 4.375 -4 1 C-2 0 -2 0 0 0 Z " fill="#D5F7F2" transform="translate(156,16)"/>
<path d="M0 0 C8.92307692 1.20118343 8.92307692 1.20118343 11 2 C11.33 2.99 11.66 3.98 12 5 C12.66 5.33 13.32 5.66 14 6 C13.67 6.66 13.34 7.32 13 8 C11.96875 7.21625 10.9375 6.4325 9.875 5.625 C6.71901262 3.35603148 3.78184481 2.01464129 0 1 C0 0.67 0 0.34 0 0 Z " fill="#C8F7F1" transform="translate(138,9)"/>
<path d="M0 0 C1.98 0.66 3.96 1.32 6 2 C4.69593116 4.01920337 3.36176581 6.01924973 2 8 C1.67 8 1.34 8 1 8 C0.67 5.36 0.34 2.72 0 0 Z " fill="#E3FDFB" transform="translate(91,105)"/>
<path d="M0 0 C-4.75 3 -4.75 3 -7 3 C-7 3.66 -7 4.32 -7 5 C-8.98 5.99 -8.98 5.99 -11 7 C-11 6.01 -11 5.02 -11 4 C-10.01 4 -9.02 4 -8 4 C-8 3.01 -8 2.02 -8 1 C-3.375 -1.125 -3.375 -1.125 0 0 Z " fill="#D6FDF7" transform="translate(20,11)"/>
<path d="M0 0 C0.33 0.66 0.66 1.32 1 2 C0.06553465 4.03144641 -0.93224776 6.03533587 -2 8 C-3.32 7.67 -4.64 7.34 -6 7 C-4.02 4.69 -2.04 2.38 0 0 Z " fill="#42C1A2" transform="translate(106,96)"/>
<path d="M0 0 C0.99 0 1.98 0 3 0 C1.44499019 3.81684226 -1.03595495 6.19195732 -4 9 C-3.67 7.35 -3.34 5.7 -3 4 C-2.34 4 -1.68 4 -1 4 C-0.67 2.68 -0.34 1.36 0 0 Z " fill="#DCFAF6" transform="translate(64,81)"/>
<path d="M0 0 C1.32 0 2.64 0 4 0 C4 3.3 4 6.6 4 10 C3.01 10 2.02 10 1 10 C1.66 7.36 2.32 4.72 3 2 C2.01 1.67 1.02 1.34 0 1 C0 0.67 0 0.34 0 0 Z " fill="#49C0A6" transform="translate(115,75)"/>
<path d="M0 0 C-1.0625 1.5 -1.0625 1.5 -3 3 C-6.6875 3.1875 -6.6875 3.1875 -10 3 C-6.68152292 -0.06320961 -4.44849969 -0.3033068 0 0 Z " fill="#17B9A0" transform="translate(138,164)"/>
<path d="M0 0 C0.66 0 1.32 0 2 0 C2 0.66 2 1.32 2 2 C2.66 2.33 3.32 2.66 4 3 C4 4.32 4 5.64 4 7 C3.01 7 2.02 7 1 7 C1 6.01 1 5.02 1 4 C0.34 3.67 -0.32 3.34 -1 3 C-0.67 2.01 -0.34 1.02 0 0 Z " fill="#30D29B" transform="translate(12,17)"/>
<path d="M0 0 C1.98 0 3.96 0 6 0 C6 0.99 6 1.98 6 3 C4.02 3 2.04 3 0 3 C0 2.01 0 1.02 0 0 Z " fill="#16C89B" transform="translate(26,163)"/>
<path d="M0 0 C0.99 0.33 1.98 0.66 3 1 C1.35 2.98 -0.3 4.96 -2 7 C-2.6875 5.1875 -2.6875 5.1875 -3 3 C-1.5625 1.25 -1.5625 1.25 0 0 Z " fill="#D9FCF8" transform="translate(108,90)"/>
<path d="M0 0 C0.99 0 1.98 0 3 0 C2.71125 0.556875 2.4225 1.11375 2.125 1.6875 C0.9586747 4.08494645 -0.0339881 6.51596939 -1 9 C-2.0326802 6.21176345 -2.04509293 5.1322726 -1.0625 2.25 C-0.711875 1.5075 -0.36125 0.765 0 0 Z " fill="#D5FBF3" transform="translate(5,19)"/>
<path d="M0 0 C2.64 1.65 5.28 3.3 8 5 C4.37673261 6.2077558 3.35853631 5.54311128 0 4 C0 2.68 0 1.36 0 0 Z " fill="#CEFBF4" transform="translate(12,160)"/>
<path d="M0 0 C0.66 0.66 1.32 1.32 2 2 C4.20250992 2.46006346 4.20250992 2.46006346 6.625 2.625 C7.44226563 2.69976562 8.25953125 2.77453125 9.1015625 2.8515625 C9.72804688 2.90054688 10.35453125 2.94953125 11 3 C11 3.33 11 3.66 11 4 C7.04 4 3.08 4 -1 4 C-0.67 2.68 -0.34 1.36 0 0 Z " fill="#30C099" transform="translate(64,86)"/>
<path d="M0 0 C1.02104551 0.97850195 2.0206121 1.97980427 3 3 C3 3.33 3 3.66 3 4 C0.69 4 -1.62 4 -4 4 C-4 3.34 -4 2.68 -4 2 C-2.68 1.34 -1.36 0.68 0 0 Z " fill="#1DCB9C" transform="translate(70,85)"/>
</svg>
